<?xml version="1.0" encoding="utf-8"?>
<!-- Generator: Adobe Illustrator 24.0.1, SVG Export Plug-In . SVG Version: 6.00 Build 0)  -->
<svg version="1.1" id="Layer_1" xmlns="http://www.w3.org/2000/svg" xmlns:xlink="http://www.w3.org/1999/xlink" x="0px" y="0px"
	 viewBox="0 0 512 512" style="enable-background:new 0 0 512 512;" xml:space="preserve">
<style type="text/css">
	.st0{fill:#FFFFFF;}
</style>
<g>
	<path class="st0" d="M178.9,424.7l-0.2,0l-0.2,0c-26.3,1.4-38.1,21-38,38.6c0.2,18.4,13.3,37.4,38.1,38.2l0.2,0l0.2,0
		c26.3-1.4,38.1-21,38-38.6C216.8,444.5,203.7,425.5,178.9,424.7z"/>
	<path class="st0" d="M416,424.7l-0.2,0l-0.2,0c-26.3,1.4-38.2,21-38,38.6c0.2,18.4,13.3,37.4,38.1,38.2l0.2,0l0.2,0
		c26.3-1.4,38.1-21,38-38.6C453.9,444.5,440.8,425.5,416,424.7z"/>
	<path class="st0" d="M504.9,119.4c-2.1-9.4-11.1-16.5-20.7-16.5c-0.2,0-0.4,0-0.6,0h-372c-2.9-13.8-5-25.6-6.8-36
		c-2.8-15.9-4.7-27.3-8.2-35.3c-4.1-9.4-10.3-13.7-19.6-13.4H4.9v42.9h54.7C80.8,164.8,94.7,237.3,104,285.4
		c10.5,54.7,15.8,82.1,20.2,96.2c4.8,15.1,9.3,17.1,18.6,18c0.5,0.1,1,0.1,1.6,0.2l309.9,0v-42.9H162.5l-12-58.8h299.4l0.2,0
		c19.4-0.9,22.2-17.4,25.2-34.9c1.2-6.8,2.5-14.6,4.9-22.4l0.1-0.4c4.1-20,9-40.9,13.2-59.3C502.8,140.8,506.3,124.8,504.9,119.4z
		 M456.9,145.7l-24.3,109.6H142.2l-21.9-109.6H456.9z"/>
</g>
</svg>
