<?xml version="1.0" encoding="utf-8"?>
<!-- Generator: Adobe Illustrator 24.0.1, SVG Export Plug-In . SVG Version: 6.00 Build 0)  -->
<svg version="1.1" id="Layer_2_1_" xmlns="http://www.w3.org/2000/svg" xmlns:xlink="http://www.w3.org/1999/xlink" x="0px" y="0px"
	 viewBox="0 0 512 512" style="enable-background:new 0 0 512 512;" xml:space="preserve">
<style type="text/css">
	.st0{fill:#FF4000;}
</style>
<path class="st0" d="M365.5,417.2h-80.4v80.4h80.4V417.2z"/>
<path class="st0" d="M506.3,417.2h-80.4v80.4h80.4V417.2z"/>
<path class="st0" d="M365.5,276.4h-80.4v80.4h80.4V276.4z"/>
<path class="st0" d="M506.3,276.4h-80.4v80.4h80.4V276.4z"/>
<path class="st0" d="M506.3,155.8H385.6V75.3c0-34.2-26.1-60.3-60.3-60.3H204.7c-34.2,0-60.3,26.1-60.3,60.3v80.4H23.7
	c-12.1,0-20.1,8-20.1,20.1c0,2,0,2,0,4l38.2,243.3c2,20.1,20.1,34.2,40.2,34.2h162.9v-40.2H82L47.8,196h458.5V155.8z M184.6,75.3
	c0-12.1,8-20.1,20.1-20.1h120.6c12.1,0,20.1,8,20.1,20.1v80.4H184.6V75.3z"/>
</svg>
