<?xml version="1.0" encoding="utf-8"?>
<!-- Generator: Adobe Illustrator 24.0.1, SVG Export Plug-In . SVG Version: 6.00 Build 0)  -->
<svg version="1.1" id="Layer_2" xmlns="http://www.w3.org/2000/svg" xmlns:xlink="http://www.w3.org/1999/xlink" x="0px" y="0px"
	 viewBox="0 0 512 512" style="enable-background:new 0 0 512 512;" xml:space="preserve">
<style type="text/css">
	.st0{fill:#FFFFFF;}
</style>
<path class="st0" d="M365.52,417.16h-80.43v80.43h80.43V417.16z"/>
<path class="st0" d="M506.28,417.16h-80.43v80.43h80.43V417.16z"/>
<path class="st0" d="M365.52,276.4h-80.43v80.43h80.43V276.4z"/>
<path class="st0" d="M506.28,276.4h-80.43v80.43h80.43V276.4z"/>
<path class="st0" d="M506.28,155.76H385.63V75.32c0-34.18-26.14-60.32-60.32-60.32H204.66c-34.18,0-60.32,26.14-60.32,60.32v80.43
	H23.69c-12.06,0-20.11,8.04-20.11,20.11c0,2.01,0,2.01,0,4.02l38.21,243.3c2.01,20.11,20.11,34.18,40.22,34.18h162.87v-40.22H82
	L47.82,195.97h458.46V155.76z M184.55,75.32c0-12.06,8.04-20.11,20.11-20.11h120.65c12.06,0,20.11,8.04,20.11,20.11v80.43H184.55
	V75.32z"/>
</svg>
