<svg width="34" height="36" viewBox="0 0 34 36" fill="none" xmlns="http://www.w3.org/2000/svg">
<path d="M27.2003 0.5H7.63981C7.54668 0.500219 7.45664 0.533322 7.38562 0.59345L3.17831 4.1197C2.87574 4.37345 3.04578 4.8876 3.4325 4.8876H26.4598C27.9962 4.8876 29.2419 6.20115 29.2419 7.82165V30.6766C29.2419 30.9146 29.0588 31.1075 28.8334 31.1075H7.04202C6.69983 31.1075 6.50945 30.69 6.72297 30.4075L16.3945 17.629C16.4338 17.5767 16.4852 17.5348 16.5443 17.5066C16.6034 17.4784 16.6685 17.465 16.7339 17.4673C16.9778 17.4757 17.2216 17.4489 17.4579 17.3878C17.9838 17.2514 18.6118 17.3913 19.1759 18.4028C19.5696 19.1109 18.5311 20.1493 19.0977 21.3621C19.1122 21.3931 19.1306 21.4221 19.1524 21.4486C21.4903 24.3465 21.3963 23.5216 23.3597 21.5388C25.8413 18.8309 26.8658 18.3661 26.0341 17.2881C26.0232 17.2745 26.0115 17.2615 25.9991 17.2492C25.775 17.0214 24.8929 16.0592 24.6643 15.8545C24.6475 15.8391 24.6293 15.8251 24.61 15.8129C23.2871 14.968 23.2075 16.9871 21.2473 15.9049C20.8991 15.7128 20.4567 15.0103 20.6162 14.3533C21.2333 11.7983 19.3666 10.3242 17.6862 9.31685C15.7578 8.22345 13.4834 7.9704 11.3145 8.5381C10.6098 8.72255 10.5376 9.7407 11.2002 10.0539C12.0824 10.4704 12.813 11.2506 13.1636 12.288C13.4143 12.9302 13.3288 13.5942 13.4361 14.2588C13.4456 14.3189 13.4425 14.3803 13.4272 14.4391C13.4119 14.4979 13.3846 14.553 13.347 14.6008L0.634646 30.7638C0.628335 30.772 0.621673 30.7797 0.614661 30.7869C-0.204361 31.6619 -0.205413 33.0717 0.614661 33.9488C1.54167 34.94 2.80526 35.4954 4.1232 35.4954H29.2419V35.5H32.9934C33.2188 35.5 33.4015 35.3075 33.4018 35.0695L33.4218 7.06705C33.4246 3.44 30.6383 0.5 27.2003 0.5Z" fill="#FF4000"/>
</svg>
