<svg id="Layer_1" data-name="Layer 1" xmlns="http://www.w3.org/2000/svg" viewBox="0 0 281.5 45.36">
  <defs>
    <style>
      .cls-1 {
        fill: #ff4000;
      }
    </style>
  </defs>
  <title>logo</title>
  <path class="cls-1" d="M184.68,477.32H159.37a.52.52,0,0,0-.33.12L153.6,482a.57.57,0,0,0,.33,1h29.79a3.7,3.7,0,0,1,3.6,3.8v29.62a.55.55,0,0,1-.53.56H158.6a.56.56,0,0,1-.41-.91l12.51-16.56a.51.51,0,0,1,.44-.21,3.34,3.34,0,0,0,.94-.1c.68-.18,1.49,0,2.22,1.31.51.92-.84,2.27-.1,3.84a.41.41,0,0,0,.07.11c3,3.76,2.9,2.69,5.44.12,3.21-3.51,4.54-4.12,3.46-5.51l0-.05c-.29-.3-1.44-1.55-1.73-1.81l-.07-.05c-1.71-1.1-1.82,1.52-4.35.11a2,2,0,0,1-.82-2c.8-3.31-1.62-5.22-3.79-6.52a10.94,10.94,0,0,0-8.24-1,1.06,1.06,0,0,0-.15,2,4.9,4.9,0,0,1,2.54,2.9,12.14,12.14,0,0,1,.35,2.55.53.53,0,0,1-.11.44l-16.45,20.95,0,0a3,3,0,0,0,0,4.1,6.23,6.23,0,0,0,4.54,2h37.35a.54.54,0,0,0,.53-.56l0-36.29A8.29,8.29,0,0,0,184.68,477.32Z" transform="translate(-149.49 -477.32)"/>
  <g>
    <g>
      <path class="cls-1" d="M205.34,497.1a8.7,8.7,0,0,1,5-7.9,8.75,8.75,0,0,1,3.65-.74,8.29,8.29,0,0,1,4.25,1.05,7,7,0,0,1,2.7,2.74l-3.11,2.18a3.44,3.44,0,0,0-1-1.46,3.92,3.92,0,0,0-1.42-.73,5.78,5.78,0,0,0-1.51-.21,4.19,4.19,0,0,0-2,.45,4.38,4.38,0,0,0-1.42,1.21,5.46,5.46,0,0,0-.84,1.69,6.28,6.28,0,0,0-.28,1.84,6.14,6.14,0,0,0,.33,2,5.5,5.5,0,0,0,.93,1.68,4.42,4.42,0,0,0,1.44,1.17,4.18,4.18,0,0,0,1.9.42,4.91,4.91,0,0,0,1.49-.23,4.08,4.08,0,0,0,1.41-.77,3.43,3.43,0,0,0,1-1.42l3.3,2a5.43,5.43,0,0,1-1.71,2.18,8.92,8.92,0,0,1-2.65,1.38,9.32,9.32,0,0,1-2.93.48,7.73,7.73,0,0,1-3.45-.77,8.9,8.9,0,0,1-2.72-2.06,9.27,9.27,0,0,1-1.77-2.89A8.83,8.83,0,0,1,205.34,497.1Z" transform="translate(-149.49 -477.32)"/>
      <path class="cls-1" d="M225.75,506v-9.3h-3.89v-3.41h11.7v3.41h-3.89V506Z" transform="translate(-149.49 -477.32)"/>
      <path class="cls-1" d="M243.37,506.2a5.1,5.1,0,0,1-2.54-.6,4.36,4.36,0,0,1-1.69-1.69v7.26h-3.92V493.25h3.4v2.08a5.29,5.29,0,0,1,1.79-1.67,5.11,5.11,0,0,1,2.52-.6,5.9,5.9,0,0,1,2.39.48,5.58,5.58,0,0,1,1.89,1.39,6.71,6.71,0,0,1,1.26,2.09,7.14,7.14,0,0,1,.46,2.56,7.7,7.7,0,0,1-.73,3.38,5.93,5.93,0,0,1-2,2.37A4.9,4.9,0,0,1,243.37,506.2ZM242,502.9a2.53,2.53,0,0,0,1.17-.28,2.94,2.94,0,0,0,.91-.74,3,3,0,0,0,.6-1.06,3.79,3.79,0,0,0,.21-1.26,3.5,3.5,0,0,0-.23-1.27,3.24,3.24,0,0,0-.65-1,3.1,3.1,0,0,0-1-.69,2.9,2.9,0,0,0-1.22-.25,2.53,2.53,0,0,0-.8.13,3.46,3.46,0,0,0-.76.34,2.91,2.91,0,0,0-.64.53,2.78,2.78,0,0,0-.49.72v2.63a4.14,4.14,0,0,0,.71,1.1,3.37,3.37,0,0,0,1,.81A2.48,2.48,0,0,0,242,502.9Z" transform="translate(-149.49 -477.32)"/>
      <path class="cls-1" d="M257,506.2a7.54,7.54,0,0,1-2.92-.52,6.37,6.37,0,0,1-2.16-1.45,6.26,6.26,0,0,1-1.34-2.11,7,7,0,0,1,0-5,6.41,6.41,0,0,1,1.33-2.1,5.86,5.86,0,0,1,2.16-1.44,8.43,8.43,0,0,1,5.83,0,6,6,0,0,1,2.16,1.44,6.44,6.44,0,0,1,1.34,2.1,7,7,0,0,1,0,5,6.19,6.19,0,0,1-3.51,3.56A7.59,7.59,0,0,1,257,506.2Zm-2.86-6.57a3.54,3.54,0,0,0,.38,1.69,2.94,2.94,0,0,0,1,1.16,2.77,2.77,0,0,0,2.93,0,2.83,2.83,0,0,0,1-1.15,3.64,3.64,0,0,0,.37-1.7,3.71,3.71,0,0,0-.37-1.71,2.89,2.89,0,0,0-1-1.15,2.58,2.58,0,0,0-1.46-.43,2.54,2.54,0,0,0-1.44.42,3,3,0,0,0-1,1.15A3.64,3.64,0,0,0,254.14,499.63Z" transform="translate(-149.49 -477.32)"/>
      <path class="cls-1" d="M265.83,506V493.25h3.92v7.55l4.94-7.55h3.6V506h-3.91v-7.31L269.46,506Zm6.24-13.9a4.56,4.56,0,0,1-3.14-1,3.52,3.52,0,0,1-1.16-2.73h2.3a1.74,1.74,0,0,0,.5,1.28,2,2,0,0,0,1.5.5,2,2,0,0,0,1.45-.47,2.17,2.17,0,0,0,.56-1.31h2.3a3.52,3.52,0,0,1-1.16,2.73A4.57,4.57,0,0,1,272.07,492.06Z" transform="translate(-149.49 -477.32)"/>
      <path class="cls-1" d="M280.1,497.1a8.7,8.7,0,0,1,5-7.9,8.72,8.72,0,0,1,3.65-.74,8.23,8.23,0,0,1,4.24,1.05,7.06,7.06,0,0,1,2.71,2.74l-3.11,2.18a3.44,3.44,0,0,0-1-1.46,3.92,3.92,0,0,0-1.42-.73,5.78,5.78,0,0,0-1.51-.21,4.19,4.19,0,0,0-2,.45,4.28,4.28,0,0,0-1.42,1.21,5.25,5.25,0,0,0-.84,1.69,6.3,6.3,0,0,0-.29,1.84,6.14,6.14,0,0,0,.33,2,5.5,5.5,0,0,0,.93,1.68,4.57,4.57,0,0,0,1.45,1.17,4.17,4.17,0,0,0,1.89.42,5,5,0,0,0,1.5-.23,4,4,0,0,0,1.4-.77,3.36,3.36,0,0,0,1-1.42l3.3,2a5.43,5.43,0,0,1-1.71,2.18,8.92,8.92,0,0,1-2.65,1.38,9.36,9.36,0,0,1-2.93.48,7.73,7.73,0,0,1-3.45-.77,8.9,8.9,0,0,1-2.72-2.06,9.27,9.27,0,0,1-1.77-2.89A8.83,8.83,0,0,1,280.1,497.1Z" transform="translate(-149.49 -477.32)"/>
      <path class="cls-1" d="M297.65,506V493.25h3.91v4.56h4.38v-4.56h3.92V506h-3.92V501h-4.38V506Z" transform="translate(-149.49 -477.32)"/>
      <path class="cls-1" d="M311.77,502.16a3.55,3.55,0,0,1,.71-2.19,4.81,4.81,0,0,1,1.95-1.5,7.2,7.2,0,0,1,2.87-.54,8.81,8.81,0,0,1,1.54.13,6.09,6.09,0,0,1,1.32.38v-.56a1.91,1.91,0,0,0-.64-1.57,2.91,2.91,0,0,0-1.93-.54,5.69,5.69,0,0,0-2,.37,11.76,11.76,0,0,0-2,1.05l-1.18-2.49a9.87,9.87,0,0,1,2.66-1.24,10.3,10.3,0,0,1,2.92-.4,6.76,6.76,0,0,1,4.49,1.35,4.84,4.84,0,0,1,1.61,3.94v3.27a1.42,1.42,0,0,0,.18.82.8.8,0,0,0,.62.26V506a5.28,5.28,0,0,1-.9.15,6.83,6.83,0,0,1-.74,0,2.69,2.69,0,0,1-1.66-.44,2,2,0,0,1-.73-1.2l-.1-.56a5.58,5.58,0,0,1-4.5,2.25,4.89,4.89,0,0,1-2.29-.52,4.16,4.16,0,0,1-1.61-1.44A3.79,3.79,0,0,1,311.77,502.16Zm7.78.47a2,2,0,0,0,.44-.49,1,1,0,0,0,.17-.49v-1.11a5.5,5.5,0,0,0-1.1-.3,6.73,6.73,0,0,0-1.13-.11,3.06,3.06,0,0,0-1.76.48,1.41,1.41,0,0,0-.71,1.21,1.33,1.33,0,0,0,.25.77,1.64,1.64,0,0,0,.67.57,2.44,2.44,0,0,0,1,.2,3.69,3.69,0,0,0,1.17-.2A3.15,3.15,0,0,0,319.55,502.63Z" transform="translate(-149.49 -477.32)"/>
      <path class="cls-1" d="M333.5,506.2a6.48,6.48,0,0,1-5.12-2c-1.16-1.31-1.73-3.26-1.73-5.85a15.72,15.72,0,0,1,.41-3.92,7.22,7.22,0,0,1,1.25-2.66,6,6,0,0,1,2.1-1.69,12.19,12.19,0,0,1,3-1l5.55-1.27,0,3.1-5.56,1.34a6.87,6.87,0,0,0-1.95.83,4,4,0,0,0-1.39,1.41,5.19,5.19,0,0,0-.65,2.1,5.8,5.8,0,0,1,2.06-1.8,6.62,6.62,0,0,1,3.13-.67,6,6,0,0,1,3,.72,5.14,5.14,0,0,1,2,2,5.85,5.85,0,0,1,.74,2.95,6.82,6.82,0,0,1-.78,3.28,5.52,5.52,0,0,1-2.32,2.27A7.82,7.82,0,0,1,333.5,506.2Zm0-3.3a2.7,2.7,0,0,0,2.05-.8,2.85,2.85,0,0,0,.76-2.08,2.68,2.68,0,0,0-.76-2,2.71,2.71,0,0,0-2.05-.77,3.13,3.13,0,0,0-1.45.33,2.43,2.43,0,0,0-1,1,2.9,2.9,0,0,0-.37,1.46,3.28,3.28,0,0,0,.33,1.52,2.31,2.31,0,0,0,1,1A3.07,3.07,0,0,0,333.5,502.9Z" transform="translate(-149.49 -477.32)"/>
      <path class="cls-1" d="M341.6,497.1a8.8,8.8,0,0,1,.57-3.1,9,9,0,0,1,1.71-2.79,8.47,8.47,0,0,1,2.76-2,8.67,8.67,0,0,1,3.64-.74,8.27,8.27,0,0,1,4.25,1.05,7,7,0,0,1,2.7,2.74l-3.1,2.18a3.55,3.55,0,0,0-1-1.46,3.77,3.77,0,0,0-1.42-.73,5.65,5.65,0,0,0-1.5-.21,4.23,4.23,0,0,0-2,.45,4.38,4.38,0,0,0-1.42,1.21,5.69,5.69,0,0,0-.84,1.69,6.28,6.28,0,0,0-.28,1.84,6.14,6.14,0,0,0,.33,2,5.5,5.5,0,0,0,.93,1.68,4.53,4.53,0,0,0,1.44,1.17,4.24,4.24,0,0,0,1.9.42,4.87,4.87,0,0,0,1.49-.23,3.91,3.91,0,0,0,1.41-.77,3.43,3.43,0,0,0,1-1.42l3.3,2a5.35,5.35,0,0,1-1.71,2.18,8.74,8.74,0,0,1-2.64,1.38,9.42,9.42,0,0,1-2.94.48,7.76,7.76,0,0,1-3.45-.77,8.86,8.86,0,0,1-2.71-2.06,9.49,9.49,0,0,1-1.78-2.89A8.82,8.82,0,0,1,341.6,497.1Z" transform="translate(-149.49 -477.32)"/>
      <path class="cls-1" d="M365.16,506.2a7.59,7.59,0,0,1-2.91-.52,6.54,6.54,0,0,1-2.17-1.42,6,6,0,0,1-1.35-2.06,6.68,6.68,0,0,1-.47-2.46,6.83,6.83,0,0,1,.82-3.34,6.3,6.3,0,0,1,2.36-2.42,7.08,7.08,0,0,1,3.72-.92,7.27,7.27,0,0,1,3.72.9,6.08,6.08,0,0,1,2.34,2.41,6.75,6.75,0,0,1,.79,3.21c0,.23,0,.45,0,.67s-.05.41-.06.57h-9.5a2.55,2.55,0,0,0,.47,1.4,2.52,2.52,0,0,0,1.05.86,3.16,3.16,0,0,0,1.32.28,3.6,3.6,0,0,0,1.68-.41,2.18,2.18,0,0,0,1-1.11l3.32,1a5.25,5.25,0,0,1-1.37,1.75,6.77,6.77,0,0,1-2.09,1.2A7.65,7.65,0,0,1,365.16,506.2Zm-2.81-7.78h5.55a2.9,2.9,0,0,0-.46-1.36,2.78,2.78,0,0,0-1-.89,3,3,0,0,0-2.69,0,2.45,2.45,0,0,0-1,.88A2.92,2.92,0,0,0,362.35,498.42Z" transform="translate(-149.49 -477.32)"/>
      <path class="cls-1" d="M382,506.2a5.17,5.17,0,0,1-2.55-.6,4.4,4.4,0,0,1-1.68-1.69v7.26H373.8V493.25h3.4v2.08a5.2,5.2,0,0,1,1.79-1.67,5.11,5.11,0,0,1,2.52-.6,5.9,5.9,0,0,1,2.39.48,5.58,5.58,0,0,1,1.89,1.39,6.71,6.71,0,0,1,1.26,2.09,7.14,7.14,0,0,1,.45,2.56,7.69,7.69,0,0,1-.72,3.38,5.93,5.93,0,0,1-2,2.37A4.9,4.9,0,0,1,382,506.2Zm-1.35-3.3a2.53,2.53,0,0,0,1.17-.28,2.94,2.94,0,0,0,.91-.74,3.35,3.35,0,0,0,.6-1.06,3.79,3.79,0,0,0,.21-1.26,3.5,3.5,0,0,0-.23-1.27,3.24,3.24,0,0,0-.65-1,3.1,3.1,0,0,0-1-.69,2.9,2.9,0,0,0-1.22-.25,2.53,2.53,0,0,0-.8.13,3.46,3.46,0,0,0-.76.34,2.91,2.91,0,0,0-.64.53,2.78,2.78,0,0,0-.49.72v2.63a4.14,4.14,0,0,0,.71,1.1,3.37,3.37,0,0,0,1,.81A2.45,2.45,0,0,0,380.6,502.9Z" transform="translate(-149.49 -477.32)"/>
      <path class="cls-1" d="M389.49,506V493.25h7.44a5.15,5.15,0,0,1,2.3.44,2.8,2.8,0,0,1,1.24,1.13,3,3,0,0,1,.4,1.49,3.5,3.5,0,0,1-.49,1.85,3.24,3.24,0,0,1-1.47,1.21,3.93,3.93,0,0,1,1.81,1.07,2.86,2.86,0,0,1,.71,2,3,3,0,0,1-2.3,3.14,9.62,9.62,0,0,1-2.69.34Zm3.72-7.64H396a1.3,1.3,0,0,0,.67-.16,1.12,1.12,0,0,0,.43-.46,1.41,1.41,0,0,0,.14-.65,1.07,1.07,0,0,0-.34-.83,1.24,1.24,0,0,0-.9-.32h-2.74Zm0,5h3.13a1.37,1.37,0,0,0,.7-.17,1.17,1.17,0,0,0,.46-.45,1.33,1.33,0,0,0,.16-.67,1.37,1.37,0,0,0-.16-.68,1.17,1.17,0,0,0-.46-.45,1.37,1.37,0,0,0-.7-.17h-3.13Z" transform="translate(-149.49 -477.32)"/>
      <path class="cls-1" d="M403.66,506V493.25h3.91v7.55l4.94-7.55h3.6V506H412.2v-7.31L407.28,506Z" transform="translate(-149.49 -477.32)"/>
      <path class="cls-1" d="M424.94,506.2a7.59,7.59,0,0,1-2.91-.53,6.46,6.46,0,0,1-2.16-1.45,6.18,6.18,0,0,1-1.36-2.1,6.84,6.84,0,0,1-.47-2.52,6.66,6.66,0,0,1,.82-3.24,6.34,6.34,0,0,1,2.37-2.4,8,8,0,0,1,7.45,0,5.84,5.84,0,0,1,2.28,2.45l-3.81,1.15a2.67,2.67,0,0,0-.94-.92,2.58,2.58,0,0,0-1.29-.33,2.65,2.65,0,0,0-1.46.42,2.9,2.9,0,0,0-1,1.14,3.55,3.55,0,0,0-.38,1.7,3.68,3.68,0,0,0,.38,1.73,2.8,2.8,0,0,0,1,1.16,2.71,2.71,0,0,0,1.44.41,2.81,2.81,0,0,0,.94-.16,2.73,2.73,0,0,0,.79-.46,2.31,2.31,0,0,0,.55-.63L431,502.8a5.6,5.6,0,0,1-1.35,1.75,6.57,6.57,0,0,1-2,1.2A7.4,7.4,0,0,1,424.94,506.2Z" transform="translate(-149.49 -477.32)"/>
    </g>
    <rect class="cls-1" x="55.19" y="35.57" width="226.04" height="2.08"/>
  </g>
</svg>
