<?xml version="1.0" encoding="utf-8"?>
<!-- Generator: Adobe Illustrator 24.0.1, SVG Export Plug-In . SVG Version: 6.00 Build 0)  -->
<svg version="1.1" xmlns="http://www.w3.org/2000/svg" xmlns:xlink="http://www.w3.org/1999/xlink" x="0px" y="0px"
	 viewBox="0 0 512 512" style="enable-background:new 0 0 512 512;" xml:space="preserve">
<style type="text/css">
	.st0{display:none;}
	.st1{display:inline;fill:#FF4000;}
</style>
<g id="Layer_3" class="st0">
	<path class="st1" d="M367.08,408.65h-80.43v80.43h80.43V408.65z"/>
	<path class="st1" d="M507.84,408.65h-80.43v80.43h80.43V408.65z"/>
	<path class="st1" d="M367.08,267.89h-80.43v80.43h80.43V267.89z"/>
	<path class="st1" d="M507.84,267.89h-80.43v80.43h80.43V267.89z"/>
	<path class="st1" d="M507.84,147.25H387.19V66.81c0-34.18-26.14-60.32-60.32-60.32H206.22c-34.18,0-60.32,26.14-60.32,60.32v80.43
		H25.25c-12.06,0-20.11,8.04-20.11,20.11c0,2.01,0,2.01,0,4.02l38.21,243.3c2.01,20.11,20.11,34.18,40.22,34.18h162.87v-40.22H83.56
		L49.38,187.46h458.46V147.25z M186.11,66.81c0-12.06,8.04-20.11,20.11-20.11h120.65c12.06,0,20.11,8.04,20.11,20.11v80.43H186.11
		V66.81z"/>
</g>
<g id="Layer_2">
	<path d="M62.6,302.72c-8.58,0-15.87-2.21-21.88-6.62c-5.15-5.15-7.72-11.41-7.72-18.77v-41.95c0-7.36,2.57-13.25,7.72-17.66
		c6.01-5.15,13.3-7.73,21.88-7.73h386.11c8.58,0,15.44,2.58,20.59,7.73c6.01,4.42,9.01,10.3,9.01,17.66v41.95
		c0,7.36-3,13.61-9.01,18.77c-5.15,4.42-12.01,6.62-20.59,6.62H62.6z"/>
</g>
</svg>
