<?xml version="1.0" encoding="utf-8"?>
<!-- Generator: Adobe Illustrator 24.0.1, SVG Export Plug-In . SVG Version: 6.00 Build 0)  -->
<svg version="1.1" id="Layer_1" xmlns="http://www.w3.org/2000/svg" xmlns:xlink="http://www.w3.org/1999/xlink" x="0px" y="0px"
	 viewBox="0 0 512 512" style="enable-background:new 0 0 512 512;" xml:space="preserve">
<style type="text/css">
	.st0{display:none;}
	.st1{display:inline;fill:#FF4000;}
	.st2{fill:#FF4000;}
</style>
<g id="Layer_3" class="st0">
	<path class="st1" d="M367.1,408.6h-80.4v80.4h80.4V408.6z"/>
	<path class="st1" d="M507.8,408.6h-80.4v80.4h80.4V408.6z"/>
	<path class="st1" d="M367.1,267.9h-80.4v80.4h80.4V267.9z"/>
	<path class="st1" d="M507.8,267.9h-80.4v80.4h80.4V267.9z"/>
	<path class="st1" d="M507.8,147.3H387.2V66.8c0-34.2-26.1-60.3-60.3-60.3H206.2c-34.2,0-60.3,26.1-60.3,60.3v80.4H25.3
		c-12.1,0-20.1,8-20.1,20.1c0,2,0,2,0,4l38.2,243.3c2,20.1,20.1,34.2,40.2,34.2h162.9v-40.2H83.6L49.4,187.5h458.5V147.3z
		 M186.1,66.8c0-12.1,8-20.1,20.1-20.1h120.6c12.1,0,20.1,8,20.1,20.1v80.4H186.1V66.8z"/>
</g>
<g id="Layer_2_1_">
	<path class="st2" d="M426.3,255.5L175.8,506l-35.1-35.1l215.4-215.4L140.7,40.1L175.8,5L426.3,255.5z"/>
</g>
</svg>
