<?xml version="1.0" encoding="utf-8"?>
<!-- Generator: Adobe Illustrator 24.0.1, SVG Export Plug-In . SVG Version: 6.00 Build 0)  -->
<svg version="1.1" id="Layer_1" xmlns="http://www.w3.org/2000/svg" xmlns:xlink="http://www.w3.org/1999/xlink" x="0px" y="0px"
	 viewBox="0 0 512 512" style="enable-background:new 0 0 512 512;" xml:space="preserve">
<style type="text/css">
	.st0{display:none;}
	.st1{display:inline;fill:#FF4000;}
	.st2{fill:#FFFFFF;}
</style>
<g id="Layer_3" class="st0">
	<path class="st1" d="M367.1,408.6h-80.4v80.4h80.4V408.6z"/>
	<path class="st1" d="M507.8,408.6h-80.4v80.4h80.4V408.6z"/>
	<path class="st1" d="M367.1,267.9h-80.4v80.4h80.4V267.9z"/>
	<path class="st1" d="M507.8,267.9h-80.4v80.4h80.4V267.9z"/>
	<path class="st1" d="M507.8,147.3H387.2V66.8c0-34.2-26.1-60.3-60.3-60.3H206.2c-34.2,0-60.3,26.1-60.3,60.3v80.4H25.3
		c-12.1,0-20.1,8-20.1,20.1c0,2,0,2,0,4l38.2,243.3c2,20.1,20.1,34.2,40.2,34.2h162.9v-40.2H83.6L49.4,187.5h458.5V147.3z
		 M186.1,66.8c0-12.1,8-20.1,20.1-20.1h120.6c12.1,0,20.1,8,20.1,20.1v80.4H186.1V66.8z"/>
</g>
<path class="st2" d="M434.8,367.6l-30.4-42.1c-18-24.9-49.8-35.6-79.2-26.6l-49,15c-2.3,0.7-15.7-5.2-39.5-46.5
	c-20.7-36-22.6-53-20.5-57.4c0-0.1,0.1-0.1,0.1-0.2l37.4-34.9c22.5-21,29.1-53.9,16.5-82l-21.4-47.6C234,12.6,196.9-4.3,162.5,6
	l-34.4,10.4h0c-25.6,7.7-45.9,27.5-54.3,52.8C62,105.1,60.5,145.4,69.6,189c8.9,43.1,28.3,90.7,57.6,141.5
	c29.3,50.8,60.8,91.3,93.6,120.6c33.2,29.6,68.8,48.6,105.7,56.2c5.5,1.2,11.1,1.7,16.7,1.7c20.8,0,41.1-7.9,56.5-22.5l26.1-24.8
	C451.9,437.1,455.7,396.6,434.8,367.6z M212.2,61.8l21.4,47.6c5.6,12.4,2.6,27-7.3,36.2l-37.4,34.9c-3.7,3.4-6.6,7.4-8.8,11.9
	c-10.5,21.4-3.8,50.7,21.8,95c30.4,52.6,57.6,73.2,85.8,64.8l49.2-15c13-4,27.1,0.8,35,11.8l30.4,42.1c9.3,12.8,7.6,30.7-3.9,41.6
	l-26.1,24.8c-10,9.5-24,13.5-37.5,10.7c-61.7-12.8-119.8-65.8-172.8-157.6c-53-91.9-69.9-168.8-50.1-228.6
	c4.3-13,14.7-23.1,27.8-27.1l34.4-10.4C189.3,39.8,205.7,47.3,212.2,61.8z"/>
</svg>
