<?xml version="1.0" encoding="utf-8"?>
<!-- Generator: Adobe Illustrator 24.0.1, SVG Export Plug-In . SVG Version: 6.00 Build 0)  -->
<svg version="1.1" xmlns="http://www.w3.org/2000/svg" xmlns:xlink="http://www.w3.org/1999/xlink" x="0px" y="0px"
	 viewBox="0 0 512 512" style="enable-background:new 0 0 512 512;" xml:space="preserve">
<style type="text/css">
	.st0{display:none;}
	.st1{display:inline;fill:#FF4000;}
</style>
<g id="Layer_3" class="st0">
	<path class="st1" d="M367.08,408.65h-80.43v80.43h80.43V408.65z"/>
	<path class="st1" d="M507.84,408.65h-80.43v80.43h80.43V408.65z"/>
	<path class="st1" d="M367.08,267.89h-80.43v80.43h80.43V267.89z"/>
	<path class="st1" d="M507.84,267.89h-80.43v80.43h80.43V267.89z"/>
	<path class="st1" d="M507.84,147.25H387.19V66.81c0-34.18-26.14-60.32-60.32-60.32H206.22c-34.18,0-60.32,26.14-60.32,60.32v80.43
		H25.25c-12.06,0-20.11,8.04-20.11,20.11c0,2.01,0,2.01,0,4.02l38.21,243.3c2.01,20.11,20.11,34.18,40.22,34.18h162.87v-40.22H83.56
		L49.38,187.46h458.46V147.25z M186.11,66.81c0-12.06,8.04-20.11,20.11-20.11h120.65c12.06,0,20.11,8.04,20.11,20.11v80.43H186.11
		V66.81z"/>
</g>
<g id="Layer_2">
	<path d="M240.37,510.66c-6.34,0-11.74-1.9-16.18-5.71c-3.81-4.44-5.71-9.83-5.71-16.18V290.82H23.39c-6.34,0-11.74-1.9-16.18-5.71
		c-3.81-4.44-5.71-9.83-5.71-16.18v-30.45c0-6.34,1.9-11.42,5.71-15.23c4.44-4.44,9.83-6.66,16.18-6.66h195.09V24.36
		c0-6.34,1.9-11.42,5.71-15.23c4.44-4.44,9.83-6.66,16.18-6.66h33.31c6.35,0,11.42,2.22,15.23,6.66c4.44,3.81,6.66,8.88,6.66,15.23
		v192.24h196.04c6.35,0,11.42,2.22,15.23,6.66c4.44,3.81,6.66,8.88,6.66,15.23v30.45c0,6.35-2.22,11.74-6.66,16.18
		c-3.81,3.81-8.88,5.71-15.23,5.71H295.57v197.95c0,6.35-2.22,11.74-6.66,16.18c-3.81,3.81-8.88,5.71-15.23,5.71H240.37z"/>
</g>
</svg>
