<?xml version="1.0" encoding="utf-8"?>
<!-- Generator: Adobe Illustrator 24.0.1, SVG Export Plug-In . SVG Version: 6.00 Build 0)  -->
<svg version="1.1" id="Layer_2" xmlns="http://www.w3.org/2000/svg" xmlns:xlink="http://www.w3.org/1999/xlink" x="0px" y="0px"
	 viewBox="0 0 512 512" style="enable-background:new 0 0 512 512;" xml:space="preserve">
<style type="text/css">
	.st0{fill:#FFFFFF;}
</style>
<path class="st0" d="M512,484.91L368.98,341.98c34.37-41.23,51.5-94.12,47.85-147.66C413.17,140.78,389,90.71,349.34,54.53
	S257.6-1.17,203.91,0.05C150.23,1.27,99.08,23.13,61.11,61.07C23.14,99.02,1.27,150.13,0.05,203.78
	c-1.22,53.65,18.3,105.7,54.51,145.33c36.21,39.63,86.31,63.79,139.88,67.44c53.57,3.66,106.49-13.47,147.75-47.82l143.02,142.93
	L512,484.91z M38.55,208.86c0-33.69,10-66.62,28.72-94.63C86,86.21,112.62,64.38,143.76,51.49c31.14-12.89,65.42-16.27,98.48-9.69
	c33.06,6.57,63.43,22.79,87.27,46.62c23.84,23.82,40.07,54.17,46.65,87.21c6.58,33.04,3.2,67.29-9.7,98.41
	c-12.9,31.12-34.75,57.73-62.78,76.44c-28.03,18.72-60.98,28.71-94.69,28.71c-45.19-0.05-88.51-18.01-120.47-49.95
	S38.6,254.01,38.55,208.86L38.55,208.86z"/>
</svg>
