<?xml version="1.0" encoding="utf-8"?>
<!-- Generator: Adobe Illustrator 24.0.1, SVG Export Plug-In . SVG Version: 6.00 Build 0)  -->
<svg version="1.1" id="Layer_1" xmlns="http://www.w3.org/2000/svg" xmlns:xlink="http://www.w3.org/1999/xlink" x="0px" y="0px"
	 viewBox="0 0 512 96.9" style="enable-background:new 0 0 512 96.9;" xml:space="preserve">
<style type="text/css">
	.st0{display:none;}
	.st1{display:inline;fill:#FF4000;}
	.st2{fill:#FF4000;}
	.st3{fill:none;stroke:#FF4000;stroke-width:3;}
</style>
<g id="Layer_3" class="st0">
	<path class="st1" d="M367.1,152.3h-80.4v80.4h80.4V152.3z"/>
	<path class="st1" d="M507.8,152.3h-80.4v80.4h80.4V152.3z"/>
	<path class="st1" d="M367.1,11.6h-80.4V92h80.4V11.6z"/>
	<path class="st1" d="M507.8,11.6h-80.4V92h80.4V11.6z"/>
	<path class="st1" d="M507.8-109.1H387.2v-80.4c0-34.2-26.1-60.3-60.3-60.3H206.2c-34.2,0-60.3,26.1-60.3,60.3v80.4H25.3
		c-12.1,0-20.1,8-20.1,20.1c0,2,0,2,0,4l38.2,243.3c2,20.1,20.1,34.2,40.2,34.2h162.9v-40.2H83.6L49.4-68.9h458.5V-109.1z
		 M186.1-189.5c0-12.1,8-20.1,20.1-20.1h120.6c12.1,0,20.1,8,20.1,20.1v80.4H186.1V-189.5z"/>
</g>
<g id="Layer_2_1_">
	<path class="st2" d="M75.3,0H21.1c-0.3,0-0.5,0.1-0.7,0.3L8.8,10c-0.8,0.7-0.4,2.1,0.7,2.1h63.7c4.3,0,7.7,3.6,7.7,8.1v63.3
		c0,0.7-0.5,1.2-1.1,1.2H19.5c-1,0-1.5-1.2-0.9-1.9l26.8-35.4c0.1-0.1,0.3-0.3,0.4-0.3s0.3-0.1,0.5-0.1c0.7,0,1.3,0,2-0.2
		c1.5-0.4,3.2,0,4.8,2.8c1.1,2-1.8,4.8-0.2,8.2c0,0.1,0.1,0.2,0.2,0.2c6.5,8,6.2,5.7,11.6,0.3c6.9-7.5,9.7-8.8,7.4-11.8
		c0,0-0.1-0.1-0.1-0.1c-0.6-0.6-3.1-3.3-3.7-3.9c-0.1,0-0.1-0.1-0.2-0.1c-3.7-2.3-3.9,3.3-9.3,0.3c-1-0.5-2.2-2.5-1.8-4.3
		c1.7-7.1-3.5-11.1-8.1-13.9c-5.3-3-11.6-3.7-17.6-2.2c-2,0.5-2.1,3.3-0.3,4.2c2.4,1.1,4.5,3.3,5.4,6.2c0.7,1.8,0.5,3.6,0.8,5.5
		c0,0.2,0,0.3,0,0.5S37,38.9,36.9,39L1.8,83.8c0,0,0,0-0.1,0.1c-2.3,2.4-2.3,6.3,0,8.8c2.6,2.7,6.1,4.3,9.7,4.3h69.5v0h10.4
		c0.6,0,1.1-0.5,1.1-1.2l0.1-77.5C92.5,8.1,84.8,0,75.3,0z"/>
	<path class="st2" d="M141.7,72c-0.6,0-1-0.2-1.4-0.5c-0.4-0.4-0.5-0.8-0.5-1.4V19.6c0-0.6,0.2-1,0.5-1.4c0.4-0.4,0.8-0.5,1.4-0.5
		h8.4c0.6,0,1,0.2,1.4,0.5s0.5,0.8,0.5,1.4V39h21V19.6c0-0.6,0.2-1,0.5-1.4s0.8-0.5,1.4-0.5h8.4c0.6,0,1,0.2,1.4,0.5
		s0.5,0.8,0.5,1.4V70c0,0.6-0.2,1-0.5,1.4S184,72,183.4,72H175c-0.6,0-1-0.2-1.4-0.5s-0.5-0.8-0.5-1.4V50h-21v20
		c0,0.6-0.2,1-0.5,1.4s-0.8,0.5-1.4,0.5H141.7z M207.9,72.7c-2.7,0-5.2-0.5-7.4-1.5c-2.2-1.1-3.9-2.5-5.2-4.3
		c-1.3-1.8-1.9-3.8-1.9-6c0-3.7,1.5-6.6,4.4-8.7c3-2.1,6.9-3.6,11.8-4.3l10.1-1.5v-1.4c0-2-0.5-3.6-1.4-4.6
		c-0.9-1.1-2.6-1.6-4.9-1.6c-1.7,0-3.1,0.3-4.1,1c-1,0.7-1.8,1.5-2.4,2.6c-0.4,0.7-1,1-1.8,1h-7.4c-0.6,0-1-0.1-1.3-0.5
		c-0.3-0.4-0.4-0.8-0.4-1.2c0-0.9,0.3-1.9,1-3.1s1.7-2.4,3.1-3.5c1.4-1.2,3.2-2.2,5.4-2.9c2.2-0.8,4.8-1.2,8-1.2
		c3.3,0,6,0.4,8.4,1.2c2.3,0.8,4.2,1.9,5.6,3.3c1.4,1.4,2.4,3,3.1,4.9c0.7,1.8,1,3.8,1,5.9v24c0,0.6-0.2,1-0.5,1.4
		c-0.4,0.4-0.8,0.5-1.4,0.5h-7.6c-0.5,0-1-0.2-1.3-0.5c-0.4-0.4-0.5-0.8-0.5-1.4v-2.9c-0.7,1-1.6,1.9-2.7,2.8
		c-1.1,0.8-2.5,1.5-4.1,2C211.8,72.5,210,72.7,207.9,72.7z M211,64.7c1.7,0,3.2-0.4,4.6-1.1c1.3-0.7,2.4-1.8,3.2-3.3
		c0.8-1.5,1.2-3.4,1.2-5.7v-1.3l-7.2,1.2c-2.8,0.5-4.8,1.2-6.1,2.1s-1.9,2.1-1.9,3.4c0,1,0.3,1.8,0.9,2.6c0.6,0.7,1.4,1.3,2.4,1.6
		C208.9,64.5,209.9,64.7,211,64.7z M257.1,72.7c-3.5,0-6.3-0.4-8.6-1.2s-4.1-1.8-5.5-2.9c-1.3-1.2-2.3-2.5-2.9-3.9
		c-0.6-1.3-0.9-2.6-1-3.6c-0.1-0.4,0.1-0.8,0.4-1c0.3-0.3,0.6-0.5,1-0.5h7.6c0.6,0,1,0.1,1.2,0.4c0.3,0.2,0.6,0.5,0.8,0.9
		c0.5,1.3,1.4,2.2,2.6,2.8c1.2,0.5,2.8,0.8,4.8,0.8c1.3,0,2.5-0.2,3.5-0.5c1-0.4,1.8-0.9,2.3-1.5c0.6-0.7,0.9-1.6,0.9-2.7
		c0-1.5-0.4-2.6-1.3-3.4c-0.9-0.8-2.4-1.2-4.4-1.2h-4.3c-0.5,0-0.9-0.1-1.2-0.5c-0.3-0.4-0.5-0.8-0.5-1.2v-3.8
		c0-0.5,0.1-0.9,0.5-1.2c0.3-0.4,0.7-0.5,1.2-0.5h4c1.7,0,3-0.3,3.8-0.9c0.8-0.7,1.2-1.7,1.2-3c0-0.8-0.2-1.6-0.6-2.3
		c-0.4-0.7-1-1.3-1.9-1.7c-0.9-0.5-2.1-0.7-3.6-0.7c-2.2,0-3.7,0.3-4.6,1s-1.6,1.7-2.1,3c-0.2,0.4-0.5,0.7-0.8,0.9
		c-0.3,0.2-0.7,0.3-1.2,0.3h-7.4c-0.4,0-0.8-0.1-1.1-0.4c-0.3-0.3-0.4-0.6-0.4-1c0.1-1.4,0.5-2.8,1.2-4.2c0.7-1.5,1.7-2.8,3-4
		c1.4-1.2,3.2-2.2,5.4-2.9c2.2-0.7,4.9-1.1,8.1-1.1c4.2,0,7.6,0.5,10.1,1.6c2.5,1.1,4.3,2.5,5.4,4.3c1.1,1.7,1.7,3.6,1.7,5.6
		c0,1.8-0.4,3.4-1.1,4.9c-0.7,1.4-2,2.6-3.9,3.5c2.3,0.9,3.9,2.2,4.8,4c0.9,1.8,1.3,3.8,1.3,5.8c0,2.5-0.7,4.7-2.3,6.5
		c-1.5,1.8-3.6,3.2-6.4,4.2C264.1,72.2,260.9,72.7,257.1,72.7z M285.1,72c-0.5,0-1-0.2-1.3-0.5c-0.4-0.4-0.5-0.8-0.5-1.4V33.6
		c0-0.6,0.2-1,0.5-1.4c0.4-0.4,0.8-0.5,1.3-0.5h17.7c5.8,0,10,1,12.7,3.1c2.7,2,4.1,4.8,4.1,8.2c0,2.1-0.4,3.7-1.2,5
		c-0.8,1.2-1.9,2.2-3.3,3.1c1.8,0.8,3.1,2.1,4.1,3.7c1,1.6,1.5,3.4,1.5,5.4c0,3.7-1.4,6.6-4.3,8.7c-2.8,2.1-7.1,3.1-12.8,3.1
		L285.1,72L285.1,72z M294.4,64.4h8.7c1.8,0,3.3-0.3,4.3-1c1.1-0.7,1.7-1.8,1.7-3.3c0-1.5-0.5-2.7-1.5-3.3c-1-0.7-2.5-1-4.5-1h-8.7
		L294.4,64.4L294.4,64.4z M294.4,47.8h8.4c1.9,0,3.3-0.4,4.4-1.2c1.1-0.8,1.6-1.9,1.6-3.3c0-1.5-0.5-2.5-1.6-3.1
		c-1.1-0.6-2.6-0.9-4.4-0.9h-8.4V47.8z M341.1,72.7c-2.7,0-5.2-0.5-7.4-1.5c-2.2-1.1-3.9-2.5-5.2-4.3s-1.9-3.8-1.9-6
		c0-3.7,1.5-6.6,4.4-8.7c3-2.1,6.9-3.6,11.8-4.3l10.1-1.5v-1.4c0-2-0.5-3.6-1.4-4.6c-0.9-1.1-2.6-1.6-4.9-1.6c-1.7,0-3.1,0.3-4.1,1
		c-1,0.7-1.8,1.5-2.4,2.6c-0.4,0.7-1,1-1.8,1h-7.4c-0.6,0-1-0.1-1.3-0.5c-0.3-0.4-0.4-0.8-0.4-1.2c0-0.9,0.3-1.9,1-3.1
		c0.7-1.2,1.7-2.4,3.1-3.5c1.4-1.2,3.2-2.2,5.4-2.9s4.8-1.2,8-1.2c3.3,0,6,0.4,8.4,1.2c2.3,0.8,4.2,1.9,5.6,3.3
		c1.4,1.4,2.4,3,3.1,4.9c0.7,1.8,1,3.8,1,5.9v24c0,0.6-0.2,1-0.5,1.4c-0.4,0.4-0.8,0.5-1.4,0.5h-7.6c-0.5,0-1-0.2-1.3-0.5
		c-0.4-0.4-0.5-0.8-0.5-1.4v-2.9c-0.7,1-1.6,1.9-2.7,2.8c-1.1,0.8-2.5,1.5-4.1,2C345.1,72.5,343.3,72.7,341.1,72.7z M344.3,64.7
		c1.7,0,3.2-0.4,4.6-1.1s2.4-1.8,3.2-3.3c0.8-1.5,1.2-3.4,1.2-5.7v-1.3l-7.2,1.2c-2.8,0.5-4.8,1.2-6.1,2.1s-1.9,2.1-1.9,3.4
		c0,1,0.3,1.8,0.9,2.6c0.6,0.7,1.4,1.3,2.4,1.6C342.1,64.5,343.2,64.7,344.3,64.7z M376.1,72c-0.5,0-1-0.2-1.3-0.5
		c-0.4-0.4-0.5-0.8-0.5-1.4V33.6c0-0.6,0.2-1,0.5-1.4c0.4-0.4,0.8-0.5,1.3-0.5h7.8c0.6,0,1,0.2,1.4,0.5c0.4,0.4,0.5,0.8,0.5,1.4
		v13.3h15.7V33.6c0-0.6,0.2-1,0.5-1.4c0.4-0.4,0.8-0.5,1.4-0.5h7.8c0.5,0,1,0.2,1.3,0.5c0.4,0.4,0.5,0.8,0.5,1.4V70
		c0,0.6-0.2,1-0.5,1.4c-0.4,0.4-0.8,0.5-1.3,0.5h-7.8c-0.6,0-1-0.2-1.4-0.5c-0.4-0.4-0.5-0.8-0.5-1.4V56.1h-15.7v14
		c0,0.6-0.2,1-0.5,1.4c-0.4,0.4-0.8,0.5-1.4,0.5L376.1,72L376.1,72z M424.8,72c-0.5,0-0.9-0.2-1.2-0.5c-0.4-0.4-0.5-0.8-0.5-1.3
		V33.6c0-0.6,0.2-1,0.5-1.4c0.4-0.4,0.8-0.5,1.3-0.5h7.8c0.6,0,1,0.2,1.4,0.5c0.4,0.4,0.5,0.8,0.5,1.4V63l-3.1-1.8l20.2-28.4
		c0.3-0.4,0.5-0.6,0.9-0.9c0.4-0.3,0.8-0.4,1.3-0.4h7c0.5,0,1,0.2,1.3,0.5c0.4,0.4,0.5,0.8,0.5,1.2V70c0,0.6-0.2,1-0.5,1.4
		c-0.4,0.4-0.8,0.5-1.4,0.5h-7.8c-0.5,0-1-0.2-1.3-0.5c-0.4-0.4-0.5-0.8-0.5-1.4V41.7l3.2,0.5L434,70.7c-0.2,0.4-0.5,0.7-0.9,0.9
		c-0.4,0.2-0.8,0.3-1.2,0.3L424.8,72L424.8,72z M489.8,72.7c-5.9,0-10.7-1.6-14.2-5c-3.5-3.3-5.3-8.1-5.5-14.4c0-0.4,0-1,0-1.6
		c0-0.7,0-1.3,0-1.7c0.2-4,1.1-7.4,2.7-10.2c1.6-2.9,3.9-5.1,6.7-6.6c2.9-1.5,6.3-2.3,10.1-2.3c4.3,0,8,0.9,10.9,2.7
		c2.9,1.8,5.1,4.2,6.6,7.3c1.5,3,2.3,6.6,2.3,10.5v1.8c0,0.5-0.2,1-0.6,1.3c-0.4,0.4-0.8,0.5-1.3,0.5h-25.3c0,0,0,0.1,0,0.3
		c0,0.1,0,0.2,0,0.3c0,1.6,0.4,3.2,0.9,4.6c0.6,1.3,1.5,2.4,2.6,3.3c1.1,0.8,2.5,1.2,4,1.2c1.3,0,2.4-0.2,3.2-0.5
		c0.8-0.4,1.5-0.8,2-1.3c0.6-0.5,1-1,1.2-1.3c0.5-0.5,0.8-0.8,1.1-0.9c0.3-0.1,0.8-0.2,1.4-0.2h8.1c0.5,0,0.9,0.1,1.2,0.5
		c0.4,0.3,0.5,0.6,0.5,1.2c0,0.8-0.5,1.9-1.3,3.1c-0.8,1.2-1.9,2.4-3.5,3.6c-1.5,1.1-3.5,2.1-5.8,2.9
		C495.5,72.3,492.8,72.7,489.8,72.7z M482.2,48h15.2v-0.1c0-1.9-0.3-3.5-0.9-4.8c-0.6-1.4-1.4-2.5-2.6-3.3c-1.1-0.8-2.5-1.2-4.1-1.2
		c-1.6,0-3,0.4-4.1,1.2c-1.1,0.8-2,1.9-2.6,3.3c-0.6,1.3-0.9,2.9-0.9,4.8L482.2,48L482.2,48z"/>
	<line class="st3" x1="132.8" y1="92.7" x2="512" y2="92.7"/>
</g>
</svg>
