<?xml version="1.0" encoding="utf-8"?>
<!-- Generator: Adobe Illustrator 24.0.1, SVG Export Plug-In . SVG Version: 6.00 Build 0)  -->
<svg version="1.1" id="Layer_1" xmlns="http://www.w3.org/2000/svg" xmlns:xlink="http://www.w3.org/1999/xlink" x="0px" y="0px"
	 viewBox="0 0 500 500" style="enable-background:new 0 0 500 500;" xml:space="preserve">
<style type="text/css">
	.st0{fill:#8FBFE0;}
	.st1{fill:#1D4990;}
	.st2{fill:#C33C54;}
	.st3{fill:#993047;}
	.st4{fill:#FFFFFF;stroke:#FFFFFF;stroke-width:0.5;stroke-miterlimit:10;}
	.st5{fill:#FFFFFF;}
</style>
<g id="_x34__2_">
	<g>
		<path class="st2" d="M275.57,115.55c54.11,10.75,96.86,53.45,107.67,107.54c1.39,6.96,7.58,11.91,14.67,11.91h0
			c9.47,0,16.57-8.68,14.71-17.96C399.4,151.24,347.41,99.3,281.59,86.16c-9.28-1.85-17.95,5.24-17.95,14.71v0
			C263.64,107.97,268.61,114.16,275.57,115.55z"/>
		<path class="st1" d="M383.24,276.91c-10.81,54.09-53.55,96.79-107.67,107.54c-6.96,1.38-11.93,7.58-11.93,14.68v0
			c0,9.47,8.66,16.56,17.95,14.71c65.83-13.14,117.82-65.08,131.04-130.88c1.87-9.29-5.23-17.96-14.71-17.96h0
			C390.82,265,384.63,269.96,383.24,276.91z"/>
		<path class="st1" d="M114.4,223.08c10.79-53.98,53.39-96.62,107.35-107.47c6.95-1.4,11.9-7.58,11.9-14.67v0
			c0-9.48-8.69-16.58-17.98-14.71C150.02,99.5,98.21,151.37,85.01,217.04C83.15,226.33,90.25,235,99.72,235h0
			C106.82,235,113.01,230.04,114.4,223.08z"/>
		<path class="st2" d="M221.74,384.39c-53.96-10.85-96.56-53.49-107.35-107.47c-1.39-6.96-7.58-11.92-14.67-11.92h0
			c-9.47,0-16.57,8.67-14.71,17.96c13.19,65.67,65.01,117.54,130.65,130.8c9.29,1.88,17.98-5.23,17.98-14.71v0
			C233.64,391.97,228.69,385.79,221.74,384.39z"/>
	</g>
	<path class="st2" d="M236.39,324.56l-14.75-40.68c-1.19-3.29-3.78-5.88-7.07-7.07l-40.68-14.75c-9.98-3.62-10.47-17.56-0.77-21.87
		l125.12-55.57c9.87-4.38,19.95,5.7,15.56,15.56l-55.57,125.12C253.95,335.03,240.01,334.55,236.39,324.56z"/>
	<path class="st3" d="M311.4,187.09l-92.49,92.49c1.2,1.21,2.14,2.67,2.74,4.31l14.75,40.68c3.62,9.98,17.56,10.47,21.87,0.77
		l55.57-125.12C316.01,195.28,314.59,190.3,311.4,187.09z"/>
	<g>
		<circle class="st1" cx="248.82" cy="55.21" r="15"/>
		<circle class="st1" cx="248.82" cy="444.79" r="15"/>
		<circle class="st1" cx="443.61" cy="250" r="15"/>
		<circle class="st1" cx="54.03" cy="250" r="15"/>
	</g>
</g>
</svg>
