<svg id="SvgjsSvg1001" width="288" height="288" xmlns="http://www.w3.org/2000/svg" version="1.1" xmlns:xlink="http://www.w3.org/1999/xlink" xmlns:svgjs="http://svgjs.com/svgjs"><defs id="SvgjsDefs1002"></defs><g id="SvgjsG1008"><svg xmlns="http://www.w3.org/2000/svg" enable-background="new 0 0 64 64" viewBox="0 0 64 64" width="288" height="288"><path d="M54.9169235 37.1247482c-.0205002-.2118988-.1084023-.4115982-.2505035-.5702972-3.5253983-3.9286995-8.8290977-7.2862015-14.9379997-9.4556007-.4325829-.1513996-.7958984-.4561005-1.0248985-.8521004-.0126839-.0760994-.0346832-.1518002-.0663986-.2259998-.2089996-.4902992-.0508003-1.0694008.4057999-1.3999004 3.2474976-2.5341988 5.1865005-6.6703987 5.1865005-11.0639992 0-7.4614005-5.4863014-13.5317001-12.2295017-13.5317001S19.7709217 6.0954499 19.7709217 13.5568504c0 4.4785004 1.9922009 8.6366997 5.3501015 11.1387005.4102001.2894993.5741997.8275986.4038143 1.3002987-.0098152.019001-.0185146.0384998-.0273151.0580997-.1968002.4590015-.5776844.8149014-1.0468998.9785004-6.1875 2.1714001-11.5562 5.5532017-15.1166992 9.5220013-.142086.158699-.2300005.3583984-.2505007.5702972-.6187 6.3252029 2.3207998 13.1025009 7.8671999 18.1328011.6420994.5765991 1.4228001.9971008 2.2646008 1.2178001 4.0629997 1.0376015 8.4228992 1.5560989 12.7841988 1.5560989 4.3779011 0 8.7572994-.5228996 12.8369007-1.5682983.8003006-.2120018 1.5522995-.6176987 2.1791992-1.1767998C52.5819206 50.2575493 55.5355225 43.4679489 54.9169235 37.1247482zM45.6801224 53.7990494c-.3886986.3466988-.857399.5996017-1.347702.7294998-7.8212967 2.0054016-16.7958984 2.0093002-24.6161976.0116997-.5293007-.1386986-1.023901-.4053001-1.4267006-.7665977-4.9794998-4.5166016-7.6704998-10.5219994-7.2451992-16.1289024 3.3403997-3.6176987 8.3213005-6.7094994 14.0655136-8.7255993.9632854-.3349991 1.7538853-1.0546989 2.1830864-1.9828987.0170994-.0307999.0326996-.0630016.0467987-.0957012.575201-1.3486004.1265011-2.9379997-1.0458851-3.7631989-2.8325138-2.1113014-4.5239143-5.6704006-4.5239143-9.5205002 0-6.3594003 4.5893993-11.5327005 10.2299995-11.5327005 5.6410999 0 10.2305012 5.1733003 10.2305012 11.5327005 0 3.7826996-1.6514015 7.3295994-4.3871994 9.4652996-1.1060028.7984009-1.5567017 2.1875-1.1597023 3.4692993.0063171.1152.0331993.2290001.0786018.3348999.4320984 1.0098 1.2719994 1.7968998 2.3008003 2.1578007 5.6674995 2.0121994 10.5863991 5.0810013 13.8925972 8.6605988C53.381321 43.2677498 50.6771202 49.2843513 45.6801224 53.7990494zM35.9999237 62.0744514h-8.0000019c-.5248985 0-.9501991.4252968-.9501991.9501991 0 .5248985.4253006.9501991.9501991.9501991h8.0000019c.5249138 0 .9501991-.4253006.9501991-.9501991C36.9501228 62.4997482 36.5248375 62.0744514 35.9999237 62.0744514z" fill="#ffffff" class="color000 svgShape"></path></svg></g></svg>