<svg id="SvgjsSvg1001" width="288" height="288" xmlns="http://www.w3.org/2000/svg" version="1.1" xmlns:xlink="http://www.w3.org/1999/xlink" xmlns:svgjs="http://svgjs.com/svgjs"><defs id="SvgjsDefs1002"></defs><g id="SvgjsG1008"><svg xmlns="http://www.w3.org/2000/svg" enable-background="new 0 0 210 210" viewBox="0 0 210 210" width="288" height="288"><path d="M75 0H15C6.716 0 0 6.716 0 15v60c0 8.284 6.716 15 15 15h60c8.284 0 15-6.716 15-15V15C90 6.716 83.284 0 75 0zM75 120H15c-8.284 0-15 6.716-15 15v60c0 8.284 6.716 15 15 15h60c8.284 0 15-6.716 15-15v-60C90 126.716 83.284 120 75 120zM195 0h-60c-8.284 0-15 6.716-15 15v60c0 8.284 6.716 15 15 15h60c8.284 0 15-6.716 15-15V15C210 6.716 203.284 0 195 0zM195 120h-60c-8.284 0-15 6.716-15 15v60c0 8.284 6.716 15 15 15h60c8.284 0 15-6.716 15-15v-60C210 126.716 203.284 120 195 120z" fill="#ffffff" class="color000 svgShape"></path></svg></g></svg>