<?xml version="1.0" encoding="utf-8"?>
<!-- Generator: Adobe Illustrator 24.0.1, SVG Export Plug-In . SVG Version: 6.00 Build 0)  -->
<svg version="1.1" id="Layer_1" xmlns="http://www.w3.org/2000/svg" xmlns:xlink="http://www.w3.org/1999/xlink" x="0px" y="0px"
	 viewBox="0 0 1200 500" style="enable-background:new 0 0 1200 500;" xml:space="preserve">
<style type="text/css">
	.st0{fill:#8FBFE0;}
	.st1{fill:#1D4990;}
	.st2{fill:#C33C54;}
	.st3{fill:#993047;}
	.st4{fill:#FFFFFF;stroke:#FFFFFF;stroke-width:0.5;stroke-miterlimit:10;}
	.st5{fill:#FFFFFF;}
</style>
<g>
	<path class="st4" d="M472.93,204.35c-0.23,0-0.47,0.01-0.7,0.02c-17.2-73.45-75.01-131.26-148.46-148.46c0-0.23,0.02-0.46,0.02-0.7
		c0-25.21-20.44-45.65-45.65-45.65S232.5,30,232.5,55.21c0,0.23,0.01,0.47,0.02,0.7c-73.45,17.2-131.26,75.02-148.46,148.47
		c-0.4-0.01-0.79-0.03-1.19-0.03c-25.21,0-45.65,20.44-45.65,45.65c0,25.21,20.44,45.65,45.65,45.65c0.4,0,0.79-0.02,1.19-0.03
		c17.2,73.45,75.01,131.27,148.46,148.47c0,0.23-0.02,0.46-0.02,0.7c0,25.21,20.44,45.65,45.65,45.65s45.65-20.44,45.65-45.65
		c0-0.23-0.01-0.47-0.02-0.7c73.45-17.2,131.26-75.01,148.46-148.46c0.23,0,0.46,0.02,0.7,0.02c25.21,0,45.65-20.44,45.65-45.65
		C518.58,224.79,498.14,204.35,472.93,204.35z"/>
	<g id="_x34__6_">
		<g>
			<path class="st2" d="M304.9,115.55c54.11,10.75,96.86,53.45,107.67,107.54c1.39,6.96,7.58,11.91,14.67,11.91h0
				c9.47,0,16.57-8.68,14.71-17.96c-13.22-65.8-65.21-117.74-131.04-130.88c-9.28-1.85-17.95,5.24-17.95,14.71v0
				C292.97,107.97,297.93,114.16,304.9,115.55z"/>
			<path class="st1" d="M412.57,276.91C401.76,331,359.01,373.71,304.9,384.45c-6.96,1.38-11.93,7.58-11.93,14.68v0
				c0,9.47,8.66,16.56,17.95,14.71c65.83-13.14,117.82-65.08,131.04-130.88c1.87-9.29-5.23-17.96-14.71-17.96h0
				C420.15,265,413.96,269.96,412.57,276.91z"/>
			<path class="st1" d="M143.73,223.08c10.79-53.98,53.39-96.62,107.35-107.47c6.95-1.4,11.9-7.58,11.9-14.67v0
				c0-9.48-8.69-16.58-17.98-14.71c-65.64,13.27-117.46,65.13-130.65,130.8c-1.87,9.29,5.24,17.96,14.71,17.96h0
				C136.15,235,142.33,230.04,143.73,223.08z"/>
			<path class="st2" d="M251.07,384.39c-53.96-10.85-96.56-53.49-107.35-107.47c-1.39-6.96-7.58-11.92-14.67-11.92h0
				c-9.47,0-16.57,8.67-14.71,17.96c13.19,65.67,65.01,117.54,130.65,130.8c9.29,1.88,17.98-5.23,17.98-14.71v0
				C262.97,391.97,258.02,385.79,251.07,384.39z"/>
		</g>
		<path class="st2" d="M265.72,324.56l-14.75-40.68c-1.19-3.29-3.78-5.88-7.07-7.07l-40.68-14.75c-9.98-3.62-10.47-17.56-0.77-21.87
			l125.12-55.57c9.87-4.38,19.95,5.7,15.56,15.56l-55.57,125.12C283.28,335.03,269.34,334.55,265.72,324.56z"/>
		<path class="st3" d="M340.72,187.09l-92.49,92.49c1.2,1.21,2.14,2.67,2.74,4.31l14.75,40.68c3.62,9.98,17.56,10.47,21.87,0.77
			l55.57-125.12C345.34,195.28,343.92,190.3,340.72,187.09z"/>
		<g>
			<circle class="st1" cx="278.15" cy="55.21" r="15"/>
			<circle class="st1" cx="278.15" cy="444.79" r="15"/>
			<circle class="st1" cx="472.93" cy="250" r="15"/>
			<circle class="st1" cx="83.36" cy="250" r="15"/>
		</g>
	</g>
	<g>
		<g>
			<path class="st5" d="M612.76,189.27v-10.26h-40.2v-53.96h10.49v44.76h21.36v-44.76h10.41v44.76h7.14v19.46H612.76z"/>
			<path class="st5" d="M647.49,179.77c-3.19,0-6.08-0.54-8.66-1.62s-4.79-2.55-6.61-4.43s-3.22-4.02-4.18-6.43
				c-0.96-2.4-1.44-4.99-1.44-7.74c0-3.71,0.85-7.13,2.55-10.26c1.7-3.13,4.1-5.64,7.22-7.52c3.12-1.88,6.85-2.82,11.21-2.82
				c4.31,0,8,0.94,11.1,2.82c3.09,1.88,5.47,4.35,7.14,7.42s2.51,6.4,2.51,10.01c0,0.65-0.03,1.27-0.08,1.84s-0.1,1.07-0.15,1.47
				h-30.7c0.15,2.08,0.72,3.85,1.71,5.31c0.99,1.46,2.25,2.59,3.8,3.38c1.54,0.79,3.18,1.19,4.9,1.19c2.08,0,4.01-0.49,5.81-1.48
				c1.8-0.99,3.03-2.32,3.69-3.99l8.66,2.43c-0.91,2.03-2.25,3.83-4.03,5.4c-1.77,1.57-3.88,2.8-6.31,3.69
				C653.19,179.32,650.48,179.77,647.49,179.77z M637.08,156.13h20.82c-0.2-1.98-0.77-3.7-1.71-5.16s-2.17-2.6-3.69-3.42
				c-1.52-0.82-3.22-1.23-5.09-1.23c-1.82,0-3.48,0.41-4.98,1.23c-1.5,0.82-2.71,1.96-3.65,3.42
				C637.85,152.43,637.28,154.15,637.08,156.13z"/>
			<path class="st5" d="M674.55,179.01v-39.44h10.18v14.97h16.11v-14.97h10.26v39.44h-10.26v-15.96h-16.11v15.96H674.55z"/>
			<path class="st5" d="M729.57,179.01v-30.48h-12.69v-8.97h35.57v8.97h-12.69v30.48H729.57z"/>
			<path class="st5" d="M782.01,179.77c-3.09,0-5.83-0.7-8.21-2.1c-2.38-1.4-4.23-3.26-5.55-5.56v23.09h-10.11v-55.63h8.89v6.83
				c1.52-2.3,3.44-4.12,5.78-5.45c2.33-1.33,4.99-1.99,7.98-1.99c2.68,0,5.15,0.53,7.41,1.58c2.25,1.05,4.23,2.52,5.93,4.4
				c1.7,1.88,3,4.05,3.91,6.5c0.91,2.46,1.37,5.06,1.37,7.82c0,3.81-0.75,7.27-2.24,10.37c-1.5,3.11-3.55,5.57-6.16,7.4
				C788.41,178.85,785.41,179.77,782.01,179.77z M778.59,171.1c1.52,0,2.93-0.32,4.22-0.97c1.29-0.65,2.39-1.52,3.31-2.61
				c0.91-1.09,1.62-2.37,2.13-3.84c0.51-1.47,0.76-2.97,0.76-4.51c0-1.59-0.27-3.09-0.8-4.51c-0.53-1.42-1.31-2.65-2.32-3.69
				c-1.01-1.04-2.19-1.86-3.53-2.46c-1.34-0.6-2.83-0.9-4.45-0.9c-0.91,0-1.86,0.16-2.85,0.48c-0.99,0.32-1.94,0.78-2.85,1.37
				c-0.91,0.59-1.7,1.27-2.36,2.04c-0.66,0.76-1.19,1.64-1.6,2.63v9.25c0.66,1.44,1.51,2.75,2.55,3.94
				c1.04,1.19,2.24,2.12,3.61,2.78C775.78,170.77,777.17,171.1,778.59,171.1z"/>
			<path class="st5" d="M590.11,270.97c-3.29,0-6.22-0.54-8.78-1.62c-2.56-1.08-4.75-2.58-6.57-4.51s-3.22-4.12-4.18-6.58
				c-0.96-2.46-1.44-5.04-1.44-7.74c0-3.66,0.84-7.04,2.51-10.15s4.08-5.59,7.22-7.44s6.87-2.78,11.17-2.78s8.01,0.94,11.1,2.81
				c3.09,1.88,5.37,4.33,6.84,7.37l-9.88,3.04c-0.86-1.47-2-2.6-3.42-3.38c-1.42-0.79-3.02-1.18-4.79-1.18
				c-1.88,0-3.6,0.48-5.17,1.45c-1.57,0.97-2.83,2.32-3.76,4.06c-0.94,1.74-1.41,3.8-1.41,6.19c0,2.29,0.47,4.32,1.41,6.11
				c0.94,1.79,2.19,3.18,3.76,4.17c1.57,0.99,3.32,1.49,5.24,1.49c1.27,0,2.43-0.2,3.5-0.61c1.06-0.41,2.04-0.98,2.93-1.71
				c0.89-0.73,1.53-1.53,1.94-2.39l9.88,3.04c-0.91,1.98-2.24,3.75-3.99,5.32c-1.75,1.57-3.8,2.8-6.16,3.69
				C595.7,270.52,593.05,270.97,590.11,270.97z"/>
			<path class="st5" d="M623.63,270.21v-30.48h-12.69v-8.97h35.57v8.97h-12.69v30.48H623.63z"/>
			<path class="st5" d="M676.07,270.97c-3.09,0-5.83-0.7-8.21-2.1c-2.38-1.4-4.23-3.26-5.55-5.56v23.09H652.2v-55.63h8.89v6.83
				c1.52-2.3,3.44-4.12,5.78-5.45c2.33-1.33,4.99-1.99,7.98-1.99c2.68,0,5.15,0.53,7.41,1.58c2.25,1.05,4.23,2.52,5.93,4.4
				c1.7,1.88,3,4.05,3.91,6.5c0.91,2.46,1.37,5.06,1.37,7.82c0,3.81-0.75,7.27-2.24,10.37c-1.5,3.11-3.55,5.57-6.16,7.4
				C682.46,270.05,679.46,270.97,676.07,270.97z M672.65,262.3c1.52,0,2.93-0.32,4.22-0.97c1.29-0.65,2.39-1.52,3.31-2.61
				c0.91-1.09,1.62-2.37,2.13-3.84c0.51-1.47,0.76-2.97,0.76-4.51c0-1.59-0.27-3.09-0.8-4.51c-0.53-1.42-1.31-2.65-2.32-3.69
				c-1.01-1.04-2.19-1.86-3.53-2.46c-1.34-0.6-2.83-0.9-4.45-0.9c-0.91,0-1.86,0.16-2.85,0.48c-0.99,0.32-1.94,0.78-2.85,1.37
				c-0.91,0.59-1.7,1.27-2.36,2.04c-0.66,0.76-1.19,1.64-1.6,2.63v9.25c0.66,1.44,1.51,2.75,2.55,3.94
				c1.04,1.19,2.24,2.12,3.61,2.78C669.83,261.97,671.23,262.3,672.65,262.3z"/>
			<path class="st5" d="M697.65,258.58c0-2.55,0.72-4.78,2.17-6.68c1.44-1.9,3.44-3.39,6-4.47c2.56-1.08,5.53-1.62,8.93-1.62
				c1.67,0,3.37,0.13,5.09,0.38c1.72,0.25,3.22,0.66,4.48,1.22v-2.19c0-2.44-0.74-4.33-2.2-5.67c-1.47-1.34-3.67-2.01-6.61-2.01
				c-2.23,0-4.33,0.38-6.31,1.14c-1.98,0.76-4.05,1.85-6.23,3.27l-3.19-6.61c2.58-1.77,5.26-3.08,8.02-3.91
				c2.76-0.84,5.66-1.25,8.7-1.25c5.67,0,10.09,1.39,13.26,4.16c3.17,2.77,4.75,6.78,4.75,12.02v12.51c0,1.05,0.19,1.8,0.57,2.25
				c0.38,0.45,1,0.72,1.86,0.82v8.28c-0.91,0.15-1.74,0.28-2.47,0.38c-0.73,0.1-1.36,0.13-1.86,0.08c-2.03,0-3.56-0.44-4.6-1.33
				c-1.04-0.89-1.66-1.99-1.86-3.31l-0.23-2.05c-1.77,2.23-3.95,3.95-6.54,5.17c-2.58,1.22-5.22,1.82-7.9,1.82
				c-2.64,0-5-0.55-7.11-1.65c-2.1-1.1-3.75-2.59-4.94-4.47C698.24,262.97,697.65,260.88,697.65,258.58z M722.42,260.48
				c0.56-0.49,1.01-1.06,1.37-1.7c0.35-0.64,0.53-1.19,0.53-1.63v-3.93c-1.22-0.49-2.53-0.88-3.95-1.15
				c-1.42-0.27-2.76-0.41-4.03-0.41c-2.63,0-4.8,0.56-6.5,1.67c-1.7,1.11-2.55,2.58-2.55,4.41c0,0.99,0.28,1.94,0.84,2.85
				c0.56,0.92,1.36,1.64,2.39,2.19c1.04,0.54,2.32,0.81,3.84,0.81c1.52,0,3.01-0.29,4.48-0.89
				C720.32,262.11,721.51,261.37,722.42,260.48z"/>
			<path class="st5" d="M753.2,270.21v-30.48h-12.69v-8.97h35.57v8.97h-12.69v30.48H753.2z"/>
			<path class="st5" d="M800.25,270.97c-3.19,0-6.08-0.54-8.66-1.62s-4.79-2.55-6.61-4.43s-3.22-4.02-4.18-6.43
				c-0.96-2.4-1.44-4.99-1.44-7.74c0-3.71,0.85-7.13,2.55-10.26c1.7-3.13,4.1-5.64,7.22-7.52c3.12-1.88,6.85-2.82,11.21-2.82
				c4.31,0,8,0.94,11.1,2.82c3.09,1.88,5.47,4.35,7.14,7.42s2.51,6.4,2.51,10.01c0,0.65-0.03,1.27-0.08,1.84s-0.1,1.07-0.15,1.47
				h-30.7c0.15,2.08,0.72,3.85,1.71,5.31c0.99,1.46,2.25,2.59,3.8,3.38c1.54,0.79,3.18,1.19,4.9,1.19c2.08,0,4.01-0.49,5.81-1.48
				c1.8-0.99,3.03-2.32,3.69-3.99l8.66,2.43c-0.91,2.03-2.25,3.83-4.03,5.4c-1.77,1.57-3.88,2.8-6.31,3.69
				C805.95,270.52,803.24,270.97,800.25,270.97z M789.84,247.33h20.82c-0.2-1.98-0.77-3.7-1.71-5.16s-2.17-2.6-3.69-3.42
				c-1.52-0.82-3.22-1.23-5.09-1.23c-1.82,0-3.48,0.41-4.98,1.23c-1.5,0.82-2.71,1.96-3.65,3.42
				C790.61,243.63,790.04,245.35,789.84,247.33z"/>
			<path class="st5" d="M827.3,270.21v-39.44h26.37v8.97h-16.19v30.48H827.3z"/>
			<path class="st5" d="M859.53,270.21v-39.44h10.18v26.05l17.86-26.05h9.27v39.44h-10.18v-25.29l-17.63,25.29H859.53z"/>
			<path class="st5" d="M928.31,270.21V256c-1.52,0.71-3.05,1.22-4.6,1.52c-1.55,0.3-3.31,0.46-5.28,0.46
				c-4.21,0-7.5-1.12-9.88-3.35c-2.38-2.24-3.57-5.54-3.57-9.91v-13.94h10.18v12.62c0,2.35,0.52,4.08,1.56,5.18
				c1.04,1.1,2.67,1.65,4.9,1.65c1.17,0,2.36-0.11,3.57-0.34s2.25-0.59,3.12-1.09v-18.03h10.18v39.44H928.31z"/>
			<path class="st5" d="M966.31,270.97c-3.19,0-6.08-0.54-8.66-1.62s-4.79-2.55-6.61-4.43s-3.22-4.02-4.18-6.43
				c-0.96-2.4-1.44-4.99-1.44-7.74c0-3.71,0.85-7.13,2.55-10.26c1.7-3.13,4.1-5.64,7.22-7.52c3.12-1.88,6.85-2.82,11.21-2.82
				c4.31,0,8,0.94,11.1,2.82c3.09,1.88,5.47,4.35,7.14,7.42s2.51,6.4,2.51,10.01c0,0.65-0.03,1.27-0.08,1.84s-0.1,1.07-0.15,1.47
				h-30.7c0.15,2.08,0.72,3.85,1.71,5.31c0.99,1.46,2.25,2.59,3.8,3.38c1.54,0.79,3.18,1.19,4.9,1.19c2.08,0,4.01-0.49,5.81-1.48
				c1.8-0.99,3.03-2.32,3.69-3.99l8.66,2.43c-0.91,2.03-2.25,3.83-4.03,5.4c-1.77,1.57-3.88,2.8-6.31,3.69
				C972.01,270.52,969.29,270.97,966.31,270.97z M955.89,247.33h20.82c-0.2-1.98-0.77-3.7-1.71-5.16s-2.17-2.6-3.69-3.42
				c-1.52-0.82-3.22-1.23-5.09-1.23c-1.82,0-3.48,0.41-4.98,1.23c-1.5,0.82-2.71,1.96-3.65,3.42
				C956.67,243.63,956.1,245.35,955.89,247.33z"/>
			<path class="st5" d="M1011.91,270.97c-3.29,0-6.22-0.54-8.78-1.62c-2.56-1.08-4.75-2.58-6.57-4.51s-3.22-4.12-4.18-6.58
				c-0.96-2.46-1.44-5.04-1.44-7.74c0-3.66,0.84-7.04,2.51-10.15s4.08-5.59,7.22-7.44s6.87-2.78,11.17-2.78s8.01,0.94,11.1,2.81
				c3.09,1.88,5.37,4.33,6.84,7.37l-9.88,3.04c-0.86-1.47-2-2.6-3.42-3.38c-1.42-0.79-3.02-1.18-4.79-1.18
				c-1.88,0-3.6,0.48-5.17,1.45c-1.57,0.97-2.83,2.32-3.76,4.06c-0.94,1.74-1.41,3.8-1.41,6.19c0,2.29,0.47,4.32,1.41,6.11
				c0.94,1.79,2.19,3.18,3.76,4.17c1.57,0.99,3.32,1.49,5.24,1.49c1.27,0,2.43-0.2,3.5-0.61c1.06-0.41,2.04-0.98,2.93-1.71
				c0.89-0.73,1.53-1.53,1.94-2.39l9.88,3.04c-0.91,1.98-2.24,3.75-3.99,5.32c-1.75,1.57-3.8,2.8-6.16,3.69
				C1017.49,270.52,1014.84,270.97,1011.91,270.97z"/>
			<path class="st5" d="M1036.23,270.21v-39.44h10.18v14.82h3.42l10.79-14.82h11.1l-14.14,18.92l15.66,20.52h-11.63l-11.93-15.66
				h-3.27v15.66H1036.23z"/>
			<path class="st5" d="M1079.54,270.21v-39.44h10.18v26.05l17.86-26.05h9.27v39.44h-10.18v-25.29l-17.63,25.29H1079.54z"/>
			<path class="st5" d="M1132.67,230.76l8.28,12.27l0.68,1.43l0.76-1.43l8.28-12.27h10.72l-13.83,19.65l14.06,19.8h-10.72
				l-8.51-12.27l-0.76-1.28l-0.61,1.28l-8.51,12.27h-10.72l14.06-19.57l-13.83-19.87H1132.67z"/>
			<path class="st5" d="M595.06,360.96c-3.05,0-5.75-0.69-8.1-2.08c-2.35-1.38-4.18-3.21-5.48-5.49v22.79h-9.97v-54.9h8.77v6.74
				c1.5-2.27,3.4-4.07,5.7-5.38s4.92-1.97,7.88-1.97c2.65,0,5.09,0.52,7.31,1.56c2.22,1.04,4.17,2.49,5.85,4.34
				c1.67,1.85,2.96,3.99,3.86,6.42c0.9,2.42,1.35,4.99,1.35,7.71c0,3.76-0.74,7.17-2.21,10.24c-1.48,3.07-3.5,5.5-6.08,7.31
				C601.37,360.05,598.41,360.96,595.06,360.96z M591.68,352.41c1.5,0,2.89-0.32,4.16-0.96c1.28-0.64,2.36-1.5,3.26-2.58
				c0.9-1.08,1.6-2.34,2.1-3.79c0.5-1.45,0.75-2.93,0.75-4.45c0-1.57-0.26-3.05-0.79-4.45c-0.52-1.4-1.29-2.61-2.29-3.64
				c-1-1.03-2.16-1.84-3.49-2.43c-1.33-0.59-2.79-0.88-4.39-0.88c-0.9,0-1.84,0.16-2.81,0.48c-0.98,0.32-1.91,0.77-2.81,1.35
				c-0.9,0.58-1.68,1.25-2.33,2.01c-0.65,0.75-1.18,1.62-1.58,2.59v9.12c0.65,1.42,1.49,2.71,2.51,3.88
				c1.02,1.17,2.21,2.09,3.56,2.75C588.91,352.08,590.28,352.41,591.68,352.41z"/>
			<path class="st5" d="M616.36,348.73c0-2.52,0.71-4.72,2.14-6.59c1.42-1.88,3.4-3.35,5.92-4.41c2.52-1.06,5.46-1.59,8.81-1.59
				c1.65,0,3.32,0.13,5.03,0.38c1.7,0.25,3.17,0.65,4.42,1.2v-2.16c0-2.41-0.73-4.27-2.17-5.6c-1.45-1.33-3.63-1.99-6.53-1.99
				c-2.2,0-4.28,0.38-6.22,1.13c-1.95,0.75-4,1.83-6.15,3.22l-3.15-6.52c2.55-1.75,5.19-3.04,7.91-3.86
				c2.72-0.83,5.59-1.24,8.59-1.24c5.6,0,9.96,1.37,13.09,4.1c3.12,2.74,4.69,6.69,4.69,11.87V349c0,1.04,0.19,1.78,0.56,2.22
				c0.38,0.44,0.99,0.71,1.84,0.81v8.17c-0.9,0.15-1.71,0.27-2.44,0.38c-0.73,0.1-1.34,0.12-1.84,0.08c-2,0-3.51-0.44-4.54-1.31
				c-1.03-0.87-1.64-1.96-1.84-3.26l-0.22-2.03c-1.75,2.2-3.9,3.9-6.45,5.1s-5.15,1.8-7.8,1.8c-2.6,0-4.94-0.54-7.01-1.63
				c-2.08-1.09-3.7-2.56-4.88-4.41C616.94,353.07,616.36,351,616.36,348.73z M640.81,350.61c0.55-0.49,1-1.05,1.35-1.68
				c0.35-0.63,0.53-1.17,0.53-1.61v-3.88c-1.2-0.49-2.5-0.87-3.9-1.13c-1.4-0.27-2.73-0.4-3.97-0.4c-2.6,0-4.74,0.55-6.41,1.65
				c-1.68,1.1-2.51,2.55-2.51,4.35c0,0.98,0.27,1.91,0.82,2.82c0.55,0.9,1.34,1.62,2.36,2.16c1.02,0.54,2.29,0.8,3.79,0.8
				s2.97-0.29,4.42-0.88C638.73,352.22,639.91,351.49,640.81,350.61z"/>
			<path class="st5" d="M676.13,360.96c-4.2,0-7.7-0.75-10.5-2.25c-2.8-1.5-5-3.55-6.6-6.15l8.1-3.67c0.85,1.25,1.96,2.25,3.34,3
				c1.38,0.75,3.09,1.13,5.14,1.13c2.35,0,4.16-0.45,5.44-1.37c1.27-0.91,1.91-2.13,1.91-3.66c0-1.38-0.52-2.49-1.58-3.32
				c-1.05-0.84-2.63-1.26-4.72-1.26h-3.97v-6.3h4.13c0.95,0,1.76-0.17,2.44-0.52c0.67-0.34,1.2-0.85,1.57-1.51s0.56-1.39,0.56-2.17
				c0-1.23-0.49-2.24-1.46-3.02c-0.98-0.79-2.51-1.18-4.61-1.18c-1.75,0-3.19,0.33-4.31,0.97c-1.13,0.65-2.09,1.6-2.89,2.85
				l-7.58-3.98c1.45-2.45,3.49-4.37,6.11-5.77c2.63-1.4,5.69-2.1,9.19-2.1c2.8,0,5.27,0.41,7.42,1.23c2.15,0.82,3.85,2.05,5.1,3.68
				c1.25,1.64,1.88,3.62,1.88,5.95c0,1.69-0.41,3.32-1.24,4.91c-0.83,1.59-2.19,2.75-4.09,3.5c2.4,0.7,4.22,1.89,5.47,3.58
				s1.88,3.67,1.88,5.96c0,2.48-0.7,4.58-2.1,6.29c-1.4,1.71-3.31,3-5.74,3.87C681.99,360.52,679.23,360.96,676.13,360.96z"/>
			<path class="st5" d="M722.85,360.96c-3.05,0-5.75-0.69-8.1-2.08c-2.35-1.38-4.18-3.21-5.48-5.49v22.79h-9.97v-54.9h8.77v6.74
				c1.5-2.27,3.4-4.07,5.7-5.38s4.92-1.97,7.88-1.97c2.65,0,5.09,0.52,7.31,1.56c2.22,1.04,4.17,2.49,5.85,4.34
				c1.67,1.85,2.96,3.99,3.86,6.42c0.9,2.42,1.35,4.99,1.35,7.71c0,3.76-0.74,7.17-2.21,10.24c-1.48,3.07-3.5,5.5-6.08,7.31
				C729.17,360.05,726.2,360.96,722.85,360.96z M719.48,352.41c1.5,0,2.89-0.32,4.16-0.96c1.28-0.64,2.36-1.5,3.26-2.58
				c0.9-1.08,1.6-2.34,2.1-3.79c0.5-1.45,0.75-2.93,0.75-4.45c0-1.57-0.26-3.05-0.79-4.45c-0.52-1.4-1.29-2.61-2.29-3.64
				c-1-1.03-2.16-1.84-3.49-2.43c-1.33-0.59-2.79-0.88-4.39-0.88c-0.9,0-1.84,0.16-2.81,0.48c-0.98,0.32-1.91,0.77-2.81,1.35
				c-0.9,0.58-1.68,1.25-2.33,2.01c-0.65,0.75-1.18,1.62-1.58,2.59v9.12c0.65,1.42,1.49,2.71,2.51,3.88
				c1.02,1.17,2.21,2.09,3.56,2.75C716.7,352.08,718.08,352.41,719.48,352.41z"/>
			<path class="st5" d="M744.15,348.73c0-2.52,0.71-4.72,2.14-6.59c1.42-1.88,3.4-3.35,5.92-4.41c2.52-1.06,5.46-1.59,8.81-1.59
				c1.65,0,3.32,0.13,5.03,0.38c1.7,0.25,3.17,0.65,4.42,1.2v-2.16c0-2.41-0.73-4.27-2.17-5.6c-1.45-1.33-3.63-1.99-6.53-1.99
				c-2.2,0-4.28,0.38-6.22,1.13c-1.95,0.75-4,1.83-6.15,3.22l-3.15-6.52c2.55-1.75,5.19-3.04,7.91-3.86
				c2.72-0.83,5.59-1.24,8.59-1.24c5.6,0,9.96,1.37,13.09,4.1c3.12,2.74,4.69,6.69,4.69,11.87V349c0,1.04,0.19,1.78,0.56,2.22
				c0.38,0.44,0.99,0.71,1.84,0.81v8.17c-0.9,0.15-1.71,0.27-2.44,0.38c-0.73,0.1-1.34,0.12-1.84,0.08c-2,0-3.51-0.44-4.54-1.31
				c-1.03-0.87-1.64-1.96-1.84-3.26l-0.22-2.03c-1.75,2.2-3.9,3.9-6.45,5.1s-5.15,1.8-7.8,1.8c-2.6,0-4.94-0.54-7.01-1.63
				c-2.08-1.09-3.7-2.56-4.88-4.41C744.74,353.07,744.15,351,744.15,348.73z M768.6,350.61c0.55-0.49,1-1.05,1.35-1.68
				c0.35-0.63,0.53-1.17,0.53-1.61v-3.88c-1.2-0.49-2.5-0.87-3.9-1.13c-1.4-0.27-2.73-0.4-3.97-0.4c-2.6,0-4.74,0.55-6.41,1.65
				c-1.68,1.1-2.51,2.55-2.51,4.35c0,0.98,0.27,1.91,0.82,2.82c0.55,0.9,1.34,1.62,2.36,2.16c1.02,0.54,2.29,0.8,3.79,0.8
				s2.97-0.29,4.42-0.88C766.53,352.22,767.7,351.49,768.6,350.61z"/>
			<path class="st5" d="M809.48,360.96c-6.7,0-11.79-1.98-15.26-5.94c-3.48-3.96-5.21-9.77-5.21-17.44c0-4.68,0.41-8.67,1.24-11.95
				c0.83-3.29,2.06-6.01,3.71-8.18c1.65-2.17,3.72-3.92,6.22-5.27s5.42-2.42,8.78-3.21l16.8-4.26l0.3,8.1l-16.72,4.47
				c-2.4,0.65-4.5,1.58-6.3,2.79c-1.8,1.22-3.24,2.79-4.31,4.71c-1.08,1.92-1.76,4.33-2.06,7.23c1.5-2.45,3.55-4.39,6.15-5.81
				s5.75-2.14,9.45-2.14c3.55,0,6.64,0.75,9.26,2.24c2.63,1.49,4.67,3.56,6.15,6.2c1.47,2.64,2.21,5.7,2.21,9.19
				c0,3.73-0.78,7.06-2.33,9.97s-3.85,5.19-6.9,6.83C817.6,360.14,813.88,360.96,809.48,360.96z M809.48,352.41
				c3.1,0,5.55-0.93,7.35-2.79c1.8-1.86,2.7-4.33,2.7-7.41c0-2.98-0.89-5.41-2.66-7.3c-1.78-1.89-4.24-2.83-7.39-2.83
				c-1.95,0-3.69,0.4-5.21,1.19c-1.53,0.79-2.74,1.95-3.64,3.46c-0.9,1.51-1.35,3.34-1.35,5.47c0,1.99,0.41,3.75,1.24,5.29
				c0.83,1.54,1.99,2.74,3.49,3.61C805.5,351.97,807.33,352.41,809.48,352.41z"/>
			<path class="st5" d="M854.7,360.96c-3.2,0-6.06-0.54-8.59-1.63c-2.53-1.09-4.69-2.57-6.49-4.45c-1.8-1.88-3.16-4.02-4.09-6.42
				c-0.93-2.4-1.39-4.93-1.39-7.6c0-2.77,0.46-5.37,1.39-7.79c0.92-2.42,2.27-4.56,4.05-6.41c1.77-1.85,3.94-3.31,6.49-4.38
				c2.55-1.06,5.4-1.6,8.55-1.6c3.25,0,6.14,0.53,8.66,1.6c2.52,1.06,4.69,2.52,6.49,4.38c1.8,1.85,3.17,3.99,4.13,6.41
				c0.95,2.42,1.42,5.02,1.42,7.79c0,2.67-0.48,5.2-1.42,7.6c-0.95,2.4-2.33,4.54-4.13,6.42c-1.8,1.88-3.96,3.36-6.49,4.45
				C860.76,360.41,857.9,360.96,854.7,360.96z M844.43,340.86c0,2.21,0.45,4.2,1.35,5.96c0.9,1.77,2.14,3.14,3.71,4.12
				c1.58,0.98,3.31,1.47,5.21,1.47s3.63-0.5,5.18-1.51c1.55-1,2.79-2.38,3.71-4.12c0.92-1.74,1.39-3.74,1.39-6
				c0-2.21-0.46-4.18-1.39-5.92c-0.93-1.74-2.16-3.11-3.71-4.12c-1.55-1.01-3.3-1.51-5.25-1.51c-1.9,0-3.63,0.5-5.18,1.51
				s-2.77,2.38-3.67,4.12C844.88,336.6,844.43,338.6,844.43,340.86z"/>
			<path class="st5" d="M891.08,360.21v-30.08h-12.53v-8.85h35.1v8.85h-12.52v30.08H891.08z"/>
			<path class="st5" d="M937.42,360.96c-3.2,0-6.06-0.54-8.59-1.63c-2.53-1.09-4.69-2.57-6.49-4.45c-1.8-1.88-3.16-4.02-4.09-6.42
				c-0.93-2.4-1.39-4.93-1.39-7.6c0-2.77,0.46-5.37,1.39-7.79c0.92-2.42,2.27-4.56,4.05-6.41c1.77-1.85,3.94-3.31,6.49-4.38
				c2.55-1.06,5.4-1.6,8.55-1.6c3.25,0,6.14,0.53,8.66,1.6c2.52,1.06,4.69,2.52,6.49,4.38c1.8,1.85,3.17,3.99,4.13,6.41
				c0.95,2.42,1.42,5.02,1.42,7.79c0,2.67-0.48,5.2-1.42,7.6c-0.95,2.4-2.33,4.54-4.13,6.42c-1.8,1.88-3.96,3.36-6.49,4.45
				C943.49,360.41,940.62,360.96,937.42,360.96z M927.15,340.86c0,2.21,0.45,4.2,1.35,5.96c0.9,1.77,2.14,3.14,3.71,4.12
				c1.58,0.98,3.31,1.47,5.21,1.47s3.63-0.5,5.18-1.51c1.55-1,2.79-2.38,3.71-4.12c0.92-1.74,1.39-3.74,1.39-6
				c0-2.21-0.46-4.18-1.39-5.92c-0.93-1.74-2.16-3.11-3.71-4.12c-1.55-1.01-3.3-1.51-5.25-1.51c-1.9,0-3.63,0.5-5.18,1.51
				s-2.77,2.38-3.67,4.12C927.6,336.6,927.15,338.6,927.15,340.86z"/>
			<path class="st5" d="M964.72,360.21v-38.92h10.05v14.63h3.38l10.65-14.63h10.95l-13.95,18.67l15.45,20.25h-11.47L978,344.76
				h-3.22v15.45H964.72z"/>
			<path class="st5" d="M1026.6,360.21v-53.25h10.27v21.53h5.25l15.83-21.53h11.55l-19.35,25.72l20.85,27.53h-12.52l-16.5-22.35
				h-5.1v22.35H1026.6z"/>
			<path class="st5" d="M1078.2,360.21v-53.25h32.7v9.08h-22.35v44.17H1078.2z"/>
			<path class="st5" d="M1123.42,360.21v-8.55h4.27c1.3,0,2.29-0.27,2.96-0.81c0.67-0.54,1.24-1.4,1.69-2.58l1.13-2.58l-21.08-38.73
				h11.4l14.32,28.3l12.45-28.3h10.8l-21.15,46.1c-1.35,2.63-2.84,4.48-4.46,5.55c-1.63,1.07-3.84,1.6-6.64,1.6H1123.42z"/>
		</g>
	</g>
</g>
</svg>
